#N canvas 522 23 614 377 10;
#X obj 159 153 hmacsha256;
#X text 158 51 inlet 1: timestamp + method + requestPath + body;
#X text 260 72 inlet 2: key;
#X text 156 224 outlet: this object stores value of inlet 2 (key) and
gnerates hmacsha256 encryption when give data from inlet 1;
#X obj 159 202 print;
#N canvas 465 203 975 557 test 1;
#X msg 95 143 1 2 3;
#X msg 147 170 4 you and me;
#X obj 95 274 print;
#X obj 277 270 print;
#X msg 277 154 bang;
#X msg 317 154 symbol click;
#X msg 51 175 bang;
#X msg 27 110 help;
#X msg 542 155 1 2 3;
#X msg 594 182 4 you and me;
#X obj 542 286 print;
#X obj 724 282 print;
#X msg 724 166 bang;
#X msg 764 166 symbol click;
#X msg 498 187 bang;
#X msg 474 122 help;
#X obj 542 218 zexy/glue;
#X obj 724 218 zexy/glue and stick;
#X obj 277 206 hmacsha256;
#X obj 95 206 hmacsha256;
#X connect 0 0 19 0;
#X connect 1 0 19 1;
#X connect 4 0 18 0;
#X connect 5 0 18 0;
#X connect 6 0 19 0;
#X connect 7 0 19 0;
#X connect 8 0 16 0;
#X connect 9 0 16 1;
#X connect 12 0 17 0;
#X connect 13 0 17 0;
#X connect 14 0 16 0;
#X connect 15 0 16 0;
#X connect 16 0 10 0;
#X connect 17 0 11 0;
#X connect 18 0 3 0;
#X connect 19 0 2 0;
#X restore 402 302 pd test;
#X msg 114 97 help;
#X msg 159 71 put together;
#X msg 265 89 list with this;
#X msg 265 117 tyg67ytg56;
#X msg 168 95 6ytgty7yuhju;
#X connect 0 0 4 0;
#X connect 6 0 0 0;
#X connect 7 0 0 0;
#X connect 8 0 0 1;
#X connect 9 0 0 1;
#X connect 10 0 0 0;
